<svg xmlns="http://www.w3.org/2000/svg" xmlns:xlink="http://www.w3.org/1999/xlink" width="400" zoomAndPan="magnify" viewBox="0 0 300 299.999988" height="400" preserveAspectRatio="xMidYMid meet" version="1.0"><defs><clipPath id="70b9930771"><path d="M 0.609375 67.609375 L 299.296875 67.609375 L 299.296875 232.3125 L 0.609375 232.3125 Z M 0.609375 67.609375 " clip-rule="nonzero"/></clipPath><clipPath id="295e674a4d"><path d="M 141.671875 153.371094 L 146.289062 153.371094 L 146.289062 158.445312 L 141.671875 158.445312 Z M 141.671875 153.371094 " clip-rule="nonzero"/></clipPath><clipPath id="2b9ce356d8"><path d="M 146.25 156.148438 C 144.898438 158.324219 144.375 158.476562 143.851562 158.398438 C 143.324219 158.324219 142.351562 157.875 142.050781 157.351562 C 141.75 156.75 141.675781 155.773438 141.976562 155.175781 C 142.199219 154.648438 143.023438 154.050781 143.625 153.898438 C 144.226562 153.824219 145.199219 154.125 145.648438 154.574219 C 146.101562 155.023438 146.324219 156 146.25 156.675781 C 146.101562 157.273438 145.425781 158.023438 144.824219 158.25 C 144.226562 158.476562 143.25 158.398438 142.726562 158.023438 C 142.125 157.574219 141.675781 156.300781 141.675781 155.625 C 141.675781 155.023438 141.976562 154.425781 142.351562 154.125 C 142.726562 153.75 143.324219 153.449219 143.851562 153.375 C 144.300781 153.375 144.976562 153.523438 145.425781 153.824219 C 145.800781 154.199219 146.25 155.25 146.25 155.25 " clip-rule="nonzero"/></clipPath><clipPath id="cc7c67818e"><path d="M 0.671875 0.371094 L 5.289062 0.371094 L 5.289062 5.445312 L 0.671875 5.445312 Z M 0.671875 0.371094 " clip-rule="nonzero"/></clipPath><clipPath id="69d61355b9"><path d="M 5.25 3.148438 C 3.898438 5.324219 3.375 5.476562 2.851562 5.398438 C 2.324219 5.324219 1.351562 4.875 1.050781 4.351562 C 0.75 3.75 0.675781 2.773438 0.976562 2.175781 C 1.199219 1.648438 2.023438 1.050781 2.625 0.898438 C 3.226562 0.824219 4.199219 1.125 4.648438 1.574219 C 5.101562 2.023438 5.324219 3 5.25 3.675781 C 5.101562 4.273438 4.425781 5.023438 3.824219 5.25 C 3.226562 5.476562 2.25 5.398438 1.726562 5.023438 C 1.125 4.574219 0.675781 3.300781 0.675781 2.625 C 0.675781 2.023438 0.976562 1.425781 1.351562 1.125 C 1.726562 0.75 2.324219 0.449219 2.851562 0.375 C 3.300781 0.375 3.976562 0.523438 4.425781 0.824219 C 4.800781 1.199219 5.25 2.25 5.25 2.25 " clip-rule="nonzero"/></clipPath><clipPath id="4636cc7f4c"><rect x="0" width="6" y="0" height="6"/></clipPath></defs><g clip-path="url(#70b9930771)"><path fill="#004aad" d="M 58.058594 191.136719 L 115.5 232.320312 L 115.5 194.421875 L 299.296875 194.421875 L 299.296875 105.492188 L 115.5 105.492188 L 115.5 67.609375 L 58.058594 108.78125 L 0.609375 149.957031 L 58.058594 191.136719 " fill-opacity="1" fill-rule="nonzero"/></g><path fill="#ffffff" d="M 103.636719 117.347656 L 287.441406 117.347656 L 287.441406 182.566406 L 103.636719 182.566406 L 103.636719 209.230469 L 20.953125 149.957031 L 103.636719 90.699219 L 103.636719 117.347656 " fill-opacity="1" fill-rule="nonzero"/><g clip-path="url(#295e674a4d)"><g clip-path="url(#2b9ce356d8)"><g transform="matrix(1, 0, 0, 1, 141, 153)"><g clip-path="url(#4636cc7f4c)"><g clip-path="url(#cc7c67818e)"><g clip-path="url(#69d61355b9)"><rect x="-207" width="432" fill="#ffffff" height="431.999983" y="-218.999997" fill-opacity="1"/></g></g></g></g></g></g></svg>