<svg xmlns="http://www.w3.org/2000/svg" xmlns:xlink="http://www.w3.org/1999/xlink" width="400" zoomAndPan="magnify" viewBox="0 0 300 299.999988" height="400" preserveAspectRatio="xMidYMid meet" version="1.0"><defs><clipPath id="cadf8ac087"><path d="M 19.007812 49 L 177 49 L 177 280.757812 L 19.007812 280.757812 Z M 19.007812 49 " clip-rule="nonzero"/></clipPath><clipPath id="a08fcfc6c2"><path d="M 123 19.007812 L 280.757812 19.007812 L 280.757812 251 L 123 251 Z M 123 19.007812 " clip-rule="nonzero"/></clipPath><clipPath id="8f408e1aa6"><path d="M 40.640625 64.265625 L 44.9375 64.265625 L 44.9375 67.871094 L 40.640625 67.871094 Z M 40.640625 64.265625 " clip-rule="nonzero"/></clipPath><clipPath id="91ed907cb6"><path d="M 44.925781 65.550781 C 42.976562 68.550781 41.25 68.023438 40.800781 67.351562 C 40.425781 66.75 40.800781 64.875 41.398438 64.425781 C 41.925781 63.976562 44.324219 64.648438 44.324219 64.648438 " clip-rule="nonzero"/></clipPath><clipPath id="c2ea122e73"><path d="M 0.640625 0.265625 L 4.9375 0.265625 L 4.9375 3.871094 L 0.640625 3.871094 Z M 0.640625 0.265625 " clip-rule="nonzero"/></clipPath><clipPath id="76b4437ad1"><path d="M 4.925781 1.550781 C 2.976562 4.550781 1.25 4.023438 0.800781 3.351562 C 0.425781 2.75 0.800781 0.875 1.398438 0.425781 C 1.925781 -0.0234375 4.324219 0.648438 4.324219 0.648438 " clip-rule="nonzero"/></clipPath><clipPath id="a61e3f584f"><rect x="0" width="5" y="0" height="4"/></clipPath></defs><g clip-path="url(#cadf8ac087)"><path fill="#ffffff" d="M 33.335938 280.980469 L 162.273438 280.980469 C 170.1875 280.980469 176.601562 274.566406 176.601562 266.65625 L 176.601562 258.46875 L 153.066406 258.46875 C 153.066406 259.597656 152.148438 260.515625 151.019531 260.515625 L 44.59375 260.515625 C 43.460938 260.515625 42.546875 259.597656 42.546875 258.46875 C 42.546875 257.339844 43.460938 256.421875 44.59375 256.421875 L 128.390625 256.421875 C 121.820312 253.414062 116.941406 247.351562 115.59375 240.046875 L 44.59375 240.046875 C 43.460938 240.046875 42.546875 239.132812 42.546875 238 C 42.546875 236.871094 43.460938 235.953125 44.59375 235.953125 L 115.203125 235.953125 L 115.203125 219.582031 L 44.59375 219.582031 C 43.460938 219.582031 42.546875 218.664062 42.546875 217.535156 C 42.546875 216.40625 43.460938 215.488281 44.59375 215.488281 L 115.203125 215.488281 L 115.203125 199.113281 L 44.59375 199.113281 C 43.460938 199.113281 42.546875 198.199219 42.546875 197.070312 C 42.546875 195.9375 43.460938 195.023438 44.59375 195.023438 L 115.203125 195.023438 L 115.203125 178.648438 L 44.59375 178.648438 C 43.460938 178.648438 42.546875 177.730469 42.546875 176.601562 C 42.546875 175.472656 43.460938 174.554688 44.59375 174.554688 L 115.203125 174.554688 L 115.203125 158.183594 L 44.59375 158.183594 C 43.460938 158.183594 42.546875 157.265625 42.546875 156.136719 C 42.546875 155.003906 43.460938 154.089844 44.59375 154.089844 L 115.203125 154.089844 L 115.203125 137.714844 L 44.59375 137.714844 C 43.460938 137.714844 42.546875 136.796875 42.546875 135.667969 C 42.546875 134.539062 43.460938 133.621094 44.59375 133.621094 L 115.203125 133.621094 L 115.203125 117.25 L 44.59375 117.25 C 43.460938 117.25 42.546875 116.332031 42.546875 115.203125 C 42.546875 114.070312 43.460938 113.15625 44.59375 113.15625 L 115.203125 113.15625 L 115.203125 49.707031 L 33.335938 49.707031 C 25.421875 49.707031 19.007812 56.121094 19.007812 64.035156 L 19.007812 266.65625 C 19.007812 274.566406 25.421875 280.980469 33.335938 280.980469 Z M 33.335938 280.980469 " fill-opacity="1" fill-rule="nonzero"/></g><g clip-path="url(#a08fcfc6c2)"><path fill="#ffffff" d="M 221.882812 19.007812 L 137.714844 19.007812 C 129.800781 19.007812 123.386719 25.421875 123.386719 33.335938 L 123.386719 235.953125 C 123.386719 243.867188 129.800781 250.28125 137.714844 250.28125 L 266.65625 250.28125 C 274.566406 250.28125 280.980469 243.867188 280.980469 235.953125 L 280.980469 65.386719 L 224.253906 19.007812 Z M 255.398438 229.816406 L 148.972656 229.816406 C 147.839844 229.816406 146.925781 228.898438 146.925781 227.769531 C 146.925781 226.636719 147.839844 225.722656 148.972656 225.722656 L 255.398438 225.722656 C 256.53125 225.722656 257.445312 226.636719 257.445312 227.769531 C 257.445312 228.898438 256.53125 229.816406 255.398438 229.816406 Z M 255.398438 209.347656 L 148.972656 209.347656 C 147.839844 209.347656 146.925781 208.433594 146.925781 207.300781 C 146.925781 206.171875 147.839844 205.253906 148.972656 205.253906 L 255.398438 205.253906 C 256.53125 205.253906 257.445312 206.171875 257.445312 207.300781 C 257.445312 208.433594 256.53125 209.347656 255.398438 209.347656 Z M 255.398438 188.882812 L 148.972656 188.882812 C 147.839844 188.882812 146.925781 187.964844 146.925781 186.835938 C 146.925781 185.703125 147.839844 184.789062 148.972656 184.789062 L 255.398438 184.789062 C 256.53125 184.789062 257.445312 185.703125 257.445312 186.835938 C 257.445312 187.964844 256.53125 188.882812 255.398438 188.882812 Z M 255.398438 168.414062 L 148.972656 168.414062 C 147.839844 168.414062 146.925781 167.5 146.925781 166.367188 C 146.925781 165.238281 147.839844 164.320312 148.972656 164.320312 L 255.398438 164.320312 C 256.53125 164.320312 257.445312 165.238281 257.445312 166.367188 C 257.445312 167.5 256.53125 168.414062 255.398438 168.414062 Z M 255.398438 147.949219 L 148.972656 147.949219 C 147.839844 147.949219 146.925781 147.03125 146.925781 145.902344 C 146.925781 144.773438 147.839844 143.855469 148.972656 143.855469 L 255.398438 143.855469 C 256.53125 143.855469 257.445312 144.773438 257.445312 145.902344 C 257.445312 147.03125 256.53125 147.949219 255.398438 147.949219 Z M 255.398438 127.480469 L 148.972656 127.480469 C 147.839844 127.480469 146.925781 126.566406 146.925781 125.433594 C 146.925781 124.304688 147.839844 123.386719 148.972656 123.386719 L 255.398438 123.386719 C 256.53125 123.386719 257.445312 124.304688 257.445312 125.433594 C 257.445312 126.566406 256.53125 127.480469 255.398438 127.480469 Z M 255.398438 107.015625 L 148.972656 107.015625 C 147.839844 107.015625 146.925781 106.097656 146.925781 104.96875 C 146.925781 103.839844 147.839844 102.921875 148.972656 102.921875 L 255.398438 102.921875 C 256.53125 102.921875 257.445312 103.839844 257.445312 104.96875 C 257.445312 106.097656 256.53125 107.015625 255.398438 107.015625 Z M 255.398438 86.546875 L 148.972656 86.546875 C 147.839844 86.546875 146.925781 85.632812 146.925781 84.503906 C 146.925781 83.371094 147.839844 82.457031 148.972656 82.457031 L 255.398438 82.457031 C 256.53125 82.457031 257.445312 83.371094 257.445312 84.503906 C 257.445312 85.632812 256.53125 86.546875 255.398438 86.546875 Z M 229.816406 36.074219 L 261.484375 61.988281 L 235.5625 61.988281 C 232.394531 61.988281 229.816406 59.496094 229.816406 56.429688 Z M 229.816406 36.074219 " fill-opacity="1" fill-rule="nonzero"/></g><g clip-path="url(#8f408e1aa6)"><g clip-path="url(#91ed907cb6)"><g transform="matrix(1, 0, 0, 1, 40, 64)"><g clip-path="url(#a61e3f584f)"><g clip-path="url(#c2ea122e73)"><g clip-path="url(#76b4437ad1)"><rect x="-106" width="432" fill="#ffffff" height="431.999983" y="-129.999997" fill-opacity="1"/></g></g></g></g></g></g></svg>