<svg xmlns="http://www.w3.org/2000/svg" xmlns:xlink="http://www.w3.org/1999/xlink" width="400" zoomAndPan="magnify" viewBox="0 0 300 299.999988" height="400" preserveAspectRatio="xMidYMid meet" version="1.0"><defs><clipPath id="371f1ef348"><path d="M 120.140625 104 L 180 104 L 180 282.75 L 120.140625 282.75 Z M 120.140625 104 " clip-rule="nonzero"/></clipPath><clipPath id="bcfdf16c64"><path d="M 120.140625 30 L 180 30 L 180 91 L 120.140625 91 Z M 120.140625 30 " clip-rule="nonzero"/></clipPath><clipPath id="930737f6ae"><path d="M 144.140625 190.941406 L 148.4375 190.941406 L 148.4375 194.585938 L 144.140625 194.585938 Z M 144.140625 190.941406 " clip-rule="nonzero"/></clipPath><clipPath id="4aeba3a071"><path d="M 148.425781 192.226562 C 146.476562 195.226562 144.675781 194.699219 144.300781 194.101562 C 143.925781 193.425781 144.300781 191.625 144.898438 191.101562 C 145.425781 190.648438 147.824219 191.324219 147.824219 191.324219 " clip-rule="nonzero"/></clipPath><clipPath id="223a154015"><path d="M 0.140625 0.941406 L 4.4375 0.941406 L 4.4375 4.585938 L 0.140625 4.585938 Z M 0.140625 0.941406 " clip-rule="nonzero"/></clipPath><clipPath id="83d4272792"><path d="M 4.425781 2.226562 C 2.476562 5.226562 0.675781 4.699219 0.300781 4.101562 C -0.0742188 3.425781 0.300781 1.625 0.898438 1.101562 C 1.425781 0.648438 3.824219 1.324219 3.824219 1.324219 " clip-rule="nonzero"/></clipPath><clipPath id="fd50c2b8e7"><rect x="0" width="5" y="0" height="5"/></clipPath></defs><g clip-path="url(#371f1ef348)"><path fill="#ffffff" d="M 149.996094 104.375 C 150.972656 104.375 151.949219 104.421875 152.921875 104.519531 C 153.894531 104.613281 154.859375 104.757812 155.820312 104.949219 C 156.777344 105.140625 157.722656 105.378906 158.660156 105.660156 C 159.59375 105.945312 160.515625 106.273438 161.417969 106.648438 C 162.320312 107.023438 163.203125 107.4375 164.066406 107.898438 C 164.925781 108.359375 165.765625 108.863281 166.578125 109.40625 C 167.390625 109.949219 168.175781 110.53125 168.929688 111.152344 C 169.6875 111.769531 170.410156 112.425781 171.101562 113.117188 C 171.792969 113.808594 172.449219 114.53125 173.066406 115.289062 C 173.6875 116.042969 174.269531 116.828125 174.8125 117.640625 C 175.355469 118.453125 175.859375 119.289062 176.316406 120.152344 C 176.777344 121.015625 177.195312 121.898438 177.570312 122.800781 C 177.945312 123.703125 178.273438 124.625 178.558594 125.558594 C 178.839844 126.492188 179.078125 127.441406 179.269531 128.398438 C 179.460938 129.359375 179.601562 130.324219 179.699219 131.296875 C 179.792969 132.269531 179.84375 133.246094 179.84375 134.222656 L 179.84375 252.335938 C 179.84375 253.3125 179.792969 254.289062 179.699219 255.261719 C 179.601562 256.234375 179.460938 257.199219 179.269531 258.160156 C 179.078125 259.117188 178.839844 260.066406 178.558594 261 C 178.273438 261.9375 177.945312 262.855469 177.570312 263.757812 C 177.195312 264.660156 176.777344 265.542969 176.316406 266.40625 C 175.859375 267.269531 175.355469 268.105469 174.8125 268.917969 C 174.269531 269.730469 173.6875 270.515625 173.066406 271.269531 C 172.449219 272.027344 171.792969 272.75 171.101562 273.441406 C 170.410156 274.132812 169.6875 274.789062 168.929688 275.410156 C 168.175781 276.027344 167.390625 276.609375 166.578125 277.152344 C 165.765625 277.695312 164.925781 278.199219 164.066406 278.660156 C 163.203125 279.121094 162.320312 279.539062 161.417969 279.910156 C 160.515625 280.285156 159.59375 280.613281 158.660156 280.898438 C 157.722656 281.183594 156.777344 281.417969 155.820312 281.609375 C 154.859375 281.800781 153.894531 281.945312 152.921875 282.039062 C 151.949219 282.136719 150.972656 282.183594 149.996094 282.183594 C 149.019531 282.183594 148.042969 282.136719 147.070312 282.039062 C 146.097656 281.945312 145.132812 281.800781 144.171875 281.609375 C 143.214844 281.417969 142.265625 281.183594 141.332031 280.898438 C 140.394531 280.613281 139.476562 280.285156 138.574219 279.910156 C 137.671875 279.539062 136.789062 279.121094 135.925781 278.660156 C 135.0625 278.199219 134.226562 277.695312 133.414062 277.152344 C 132.601562 276.609375 131.816406 276.027344 131.0625 275.410156 C 130.304688 274.789062 129.582031 274.132812 128.890625 273.441406 C 128.199219 272.75 127.542969 272.027344 126.921875 271.269531 C 126.304688 270.515625 125.722656 269.730469 125.179688 268.917969 C 124.636719 268.105469 124.132812 267.269531 123.671875 266.40625 C 123.210938 265.542969 122.792969 264.660156 122.421875 263.757812 C 122.046875 262.855469 121.71875 261.9375 121.433594 261 C 121.148438 260.066406 120.914062 259.117188 120.722656 258.160156 C 120.53125 257.199219 120.386719 256.234375 120.292969 255.261719 C 120.195312 254.289062 120.148438 253.3125 120.148438 252.335938 L 120.148438 134.222656 C 120.148438 133.246094 120.195312 132.269531 120.292969 131.296875 C 120.386719 130.324219 120.53125 129.359375 120.722656 128.398438 C 120.914062 127.441406 121.148438 126.492188 121.433594 125.558594 C 121.71875 124.625 122.046875 123.703125 122.421875 122.800781 C 122.792969 121.898438 123.210938 121.015625 123.671875 120.152344 C 124.132812 119.289062 124.636719 118.453125 125.179688 117.640625 C 125.722656 116.828125 126.304688 116.042969 126.921875 115.289062 C 127.542969 114.53125 128.199219 113.808594 128.890625 113.117188 C 129.582031 112.425781 130.304688 111.769531 131.0625 111.152344 C 131.816406 110.53125 132.601562 109.949219 133.414062 109.40625 C 134.226562 108.863281 135.0625 108.359375 135.925781 107.898438 C 136.789062 107.4375 137.671875 107.023438 138.574219 106.648438 C 139.476562 106.273438 140.394531 105.945312 141.332031 105.660156 C 142.265625 105.378906 143.214844 105.140625 144.171875 104.949219 C 145.132812 104.757812 146.097656 104.613281 147.070312 104.519531 C 148.042969 104.421875 149.019531 104.375 149.996094 104.375 Z M 149.996094 104.375 " fill-opacity="1" fill-rule="nonzero"/></g><g clip-path="url(#bcfdf16c64)"><path fill="#ffffff" d="M 179.84375 60.425781 C 179.84375 61.402344 179.792969 62.378906 179.699219 63.351562 C 179.601562 64.324219 179.460938 65.289062 179.269531 66.246094 C 179.078125 67.207031 178.839844 68.152344 178.558594 69.089844 C 178.273438 70.023438 177.945312 70.945312 177.570312 71.847656 C 177.195312 72.75 176.777344 73.632812 176.316406 74.496094 C 175.859375 75.355469 175.355469 76.195312 174.8125 77.007812 C 174.269531 77.820312 173.6875 78.605469 173.066406 79.359375 C 172.449219 80.117188 171.792969 80.839844 171.101562 81.53125 C 170.410156 82.222656 169.6875 82.875 168.929688 83.496094 C 168.175781 84.117188 167.390625 84.699219 166.578125 85.242188 C 165.765625 85.785156 164.925781 86.285156 164.066406 86.746094 C 163.203125 87.207031 162.320312 87.625 161.417969 88 C 160.515625 88.375 159.59375 88.703125 158.660156 88.988281 C 157.722656 89.269531 156.777344 89.507812 155.820312 89.699219 C 154.859375 89.890625 153.894531 90.03125 152.921875 90.128906 C 151.949219 90.222656 150.972656 90.273438 149.996094 90.273438 C 149.019531 90.273438 148.042969 90.222656 147.070312 90.128906 C 146.097656 90.03125 145.132812 89.890625 144.171875 89.699219 C 143.214844 89.507812 142.265625 89.269531 141.332031 88.988281 C 140.394531 88.703125 139.476562 88.375 138.574219 88 C 137.671875 87.625 136.789062 87.207031 135.925781 86.746094 C 135.0625 86.285156 134.226562 85.785156 133.414062 85.242188 C 132.601562 84.699219 131.816406 84.117188 131.0625 83.496094 C 130.304688 82.875 129.582031 82.222656 128.890625 81.53125 C 128.199219 80.839844 127.542969 80.117188 126.921875 79.359375 C 126.304688 78.605469 125.722656 77.820312 125.179688 77.007812 C 124.636719 76.195312 124.132812 75.355469 123.671875 74.496094 C 123.210938 73.632812 122.792969 72.75 122.421875 71.847656 C 122.046875 70.945312 121.71875 70.023438 121.433594 69.089844 C 121.148438 68.152344 120.914062 67.207031 120.722656 66.246094 C 120.53125 65.289062 120.386719 64.324219 120.292969 63.351562 C 120.195312 62.378906 120.148438 61.402344 120.148438 60.425781 C 120.148438 59.449219 120.195312 58.472656 120.292969 57.5 C 120.386719 56.527344 120.53125 55.5625 120.722656 54.601562 C 120.914062 53.644531 121.148438 52.695312 121.433594 51.761719 C 121.71875 50.824219 122.046875 49.90625 122.421875 49.003906 C 122.792969 48.101562 123.210938 47.21875 123.671875 46.355469 C 124.132812 45.492188 124.636719 44.65625 125.179688 43.84375 C 125.722656 43.03125 126.304688 42.246094 126.921875 41.492188 C 127.542969 40.734375 128.199219 40.011719 128.890625 39.320312 C 129.582031 38.628906 130.304688 37.972656 131.0625 37.351562 C 131.816406 36.734375 132.601562 36.152344 133.414062 35.609375 C 134.226562 35.066406 135.0625 34.5625 135.925781 34.101562 C 136.789062 33.640625 137.671875 33.222656 138.574219 32.851562 C 139.476562 32.476562 140.394531 32.148438 141.332031 31.863281 C 142.265625 31.578125 143.214844 31.34375 144.171875 31.152344 C 145.132812 30.960938 146.097656 30.816406 147.070312 30.722656 C 148.042969 30.625 149.019531 30.578125 149.996094 30.578125 C 150.972656 30.578125 151.949219 30.625 152.921875 30.722656 C 153.894531 30.816406 154.859375 30.960938 155.820312 31.152344 C 156.777344 31.34375 157.722656 31.578125 158.660156 31.863281 C 159.59375 32.148438 160.515625 32.476562 161.417969 32.851562 C 162.320312 33.222656 163.203125 33.640625 164.066406 34.101562 C 164.925781 34.5625 165.765625 35.066406 166.578125 35.609375 C 167.390625 36.152344 168.175781 36.734375 168.929688 37.351562 C 169.6875 37.972656 170.410156 38.628906 171.101562 39.320312 C 171.792969 40.011719 172.449219 40.734375 173.066406 41.492188 C 173.6875 42.246094 174.269531 43.03125 174.8125 43.84375 C 175.355469 44.65625 175.859375 45.492188 176.316406 46.355469 C 176.777344 47.21875 177.195312 48.101562 177.570312 49.003906 C 177.945312 49.90625 178.273438 50.824219 178.558594 51.761719 C 178.839844 52.695312 179.078125 53.644531 179.269531 54.601562 C 179.460938 55.5625 179.601562 56.527344 179.699219 57.5 C 179.792969 58.472656 179.84375 59.449219 179.84375 60.425781 Z M 179.84375 60.425781 " fill-opacity="1" fill-rule="nonzero"/></g><g clip-path="url(#930737f6ae)"><g clip-path="url(#4aeba3a071)"><g transform="matrix(1, 0, 0, 1, 144, 190)"><g clip-path="url(#fd50c2b8e7)"><g clip-path="url(#223a154015)"><g clip-path="url(#83d4272792)"><rect x="-210" width="432" fill="#ffffff" height="431.999983" y="-255.999997" fill-opacity="1"/></g></g></g></g></g></g></svg>